<?xml version="1.0" encoding="UTF-8" standalone="no"?>
<!DOCTYPE svg PUBLIC "-//W3C//DTD SVG 1.1//EN" "http://www.w3.org/Graphics/SVG/1.1/DTD/svg11.dtd">
<svg version="1.1" xmlns="http://www.w3.org/2000/svg" xmlns:xlink="http://www.w3.org/1999/xlink" preserveAspectRatio="xMidYMid meet" viewBox="0 0 640 640" width="640" height="640"><defs><path d="M320 0C143.27 0 0 143.27 0 320C0 496.73 143.27 640 320 640C496.73 640 640 496.73 640 320C640 143.27 496.73 0 320 0Z" id="i2nXE1gEcE"></path><path d="M212.24 395.68L312.19 395.68L235.69 169.86L267.77 169.86L267.77 121.74L115.99 121.74L214.71 395.68L212.24 395.68Z" id="a2lhVrNtZW"></path><path d="M392.4 148.88L408.44 195.77L420.78 195.77L345.51 425.29L425.72 425.29L524.43 148.88" id="e24QCw5j9A"></path><path d="M281.34 589.41L335.64 589.41L335.64 512.9L391.17 512.9L409.68 466.01L334.4 466.01L320.83 424.06L222.11 424.06L281.34 589.41Z" id="acRyZQtSs"></path></defs><g><g><g><use xlink:href="#i2nXE1gEcE" opacity="1" fill="#ffffff" fill-opacity="1"></use><g><use xlink:href="#i2nXE1gEcE" opacity="1" fill-opacity="0" stroke="#000000" stroke-width="NaN" stroke-opacity="0"></use></g></g><g><use xlink:href="#a2lhVrNtZW" opacity="1" fill="#000000" fill-opacity="1"></use><g><use xlink:href="#a2lhVrNtZW" opacity="1" fill-opacity="0" stroke="#000000" stroke-width="1" stroke-opacity="0"></use></g></g><g><use xlink:href="#e24QCw5j9A" opacity="1" fill="#000000" fill-opacity="1"></use><g><use xlink:href="#e24QCw5j9A" opacity="1" fill-opacity="0" stroke="#000000" stroke-width="1" stroke-opacity="0"></use></g></g><g><use xlink:href="#acRyZQtSs" opacity="1" fill="#000000" fill-opacity="1"></use><g><use xlink:href="#acRyZQtSs" opacity="1" fill-opacity="0" stroke="#000000" stroke-width="1" stroke-opacity="0"></use></g></g></g></g></svg>